<svg width="954" height="394" viewBox="0 0 954 394" fill="none" xmlns="http://www.w3.org/2000/svg">
<path d="M657.622 18.8317C682.449 13.6214 702.51 12.7548 716.097 21.8555C729.645 30.931 736.948 50.0674 735.848 85.4272C731.452 226.73 613.329 337.715 472.012 333.319C330.696 328.922 219.7 210.809 224.096 69.5063C225.197 34.1181 232.251 15.4233 244.202 7.15315C250.172 3.02174 257.419 1.45081 265.888 1.74968C274.363 2.04883 284.03 4.21887 294.802 7.54025C305.571 10.8609 317.415 15.322 330.245 20.1866C343.07 25.0493 356.875 30.3131 371.544 35.23C400.885 45.0642 433.71 53.5186 469.177 54.622C504.642 55.7253 539.365 49.3733 571.409 41.4508C587.432 37.4896 602.793 33.1338 617.241 29.12C631.693 25.105 645.23 21.4324 657.622 18.8317Z" stroke="black"/>
<path d="M442.156 65.2313C466.985 59.9293 487.045 59.04 500.625 68.2726C514.171 77.4818 521.467 96.9124 520.35 132.818C515.886 276.299 397.701 389.037 256.391 384.641C115.082 380.244 4.13341 260.378 8.59719 116.897C9.7151 80.9635 16.7793 61.9736 28.7363 53.5695C34.708 49.3722 41.9554 47.7748 50.4225 48.0741C58.8963 48.3738 68.562 50.5727 79.3322 53.9398C90.1001 57.3062 101.942 61.8298 114.77 66.7628C127.593 71.6939 141.395 77.0318 156.063 82.0171C185.399 91.988 218.222 100.557 253.69 101.66C289.155 102.763 323.882 96.2972 355.932 88.238C371.956 84.2085 387.32 79.7776 401.77 75.6954C416.224 71.612 429.762 67.8778 442.156 65.2313Z" stroke="black"/>
<path d="M872.621 62.6101C897.45 57.3081 917.51 56.4188 931.091 65.6514C944.637 74.8606 951.932 94.2912 950.815 130.196C946.351 273.678 828.166 386.416 686.857 382.019C545.547 377.623 434.599 257.757 439.063 114.275C440.18 78.3423 447.245 59.3524 459.202 50.9482C465.173 46.7509 472.421 45.1536 480.888 45.4529C489.362 45.7526 499.027 47.9515 509.798 51.3186C520.565 54.6849 532.408 59.2086 545.235 64.1416C558.058 69.0727 571.86 74.4106 586.528 79.3959C615.864 89.3668 648.687 97.9354 684.155 99.0388C719.621 100.142 754.348 93.676 786.397 85.6168C802.422 81.5873 817.785 77.1564 832.235 73.0742C846.69 68.9907 860.228 65.2566 872.621 62.6101Z" stroke="black"/>
</svg>
