<svg width="60" height="60" viewBox="0 0 60 60" fill="none" xmlns="http://www.w3.org/2000/svg">
<circle cx="2" cy="2" r="2" fill="white"/>
<circle cx="16" cy="2" r="2" fill="white"/>
<circle cx="30" cy="2" r="2" fill="white"/>
<circle cx="44" cy="2" r="2" fill="white"/>
<circle cx="58" cy="2" r="2" fill="#6C43E3"/>
<circle cx="2" cy="16" r="2" fill="white"/>
<circle cx="16" cy="16" r="2" fill="white"/>
<circle cx="30" cy="16" r="2" fill="white"/>
<circle cx="44" cy="16" r="2" fill="#6C43E3"/>
<circle cx="58" cy="16" r="2" fill="#6C43E3"/>
<circle cx="2" cy="30" r="2" fill="white"/>
<circle cx="16" cy="30" r="2" fill="white"/>
<circle cx="30" cy="30" r="2" fill="#6C43E3"/>
<circle cx="44" cy="30" r="2" fill="#6C43E3"/>
<circle cx="58" cy="30" r="2" fill="#6C43E3"/>
<circle cx="2" cy="44" r="2" fill="white"/>
<circle cx="16" cy="44" r="2" fill="#6C43E3"/>
<circle cx="30" cy="44" r="2" fill="#6C43E3"/>
<circle cx="44" cy="44" r="2" fill="#6C43E3"/>
<circle cx="58" cy="44" r="2" fill="#6C43E3"/>
<circle cx="2" cy="58" r="2" fill="#6C43E3"/>
<circle cx="16" cy="58" r="2" fill="#6C43E3"/>
<circle cx="30" cy="58" r="2" fill="#6C43E3"/>
<circle cx="44" cy="58" r="2" fill="#6C43E3"/>
<circle cx="58" cy="58" r="2" fill="#6C43E3"/>
</svg>
