<svg width="20" height="17" fill="none" xmlns="http://www.w3.org/2000/svg">
    <g clip-path="url(#a)" fill="#000">
        <path d="M8.794 16.86 0 7.348h4.264l3.366 3.873c.032-.09 1.399-2.693 3.33-4.68C14.656 2.74 19.292 0 19.292 0c-.02.015-1.987 1.562-4.252 4.397-2.09 2.615-4.87 6.894-6.237 12.424l-.01.04Z"/>
        <path d="M10.96 6.542C9.027 8.528 7.661 11.13 7.628 11.22l1.164 5.64.01-.04c1.367-5.53 4.146-9.809 6.236-12.424C17.305 1.562 19.272.015 19.292 0c0 0-4.637 2.74-8.333 6.542Z"/>
    </g>
    <defs>
        <clipPath id="a">
            <path fill="#fff" d="M0 0h20v17H0z"/>
        </clipPath>
    </defs>
</svg>
