<svg width="126" height="126" viewBox="0 0 126 126" fill="none" xmlns="http://www.w3.org/2000/svg">
<path d="M62.627 1C64.2071 1.00006 65.7225 1.62782 66.8398 2.74512C67.9573 3.86256 68.585 5.37869 68.585 6.95898V40.3896L70.4512 37.1572L85.2998 11.4346L85.3008 11.4355C86.0912 10.0674 87.3926 9.06884 88.9189 8.66016C90.4453 8.2515 92.0721 8.4656 93.4404 9.25586C94.8082 10.046 95.8059 11.3473 96.2148 12.873C96.5982 14.3036 96.4343 15.8221 95.7617 17.1338L95.6211 17.3936L80.7715 43.1162L78.9062 46.3477L82.1377 44.4824L107.862 29.6328C109.231 28.8434 110.856 28.6293 112.382 29.0381C113.907 29.4469 115.209 30.445 115.999 31.8125V31.8135C116.788 33.1817 117.003 34.8072 116.594 36.333V36.334C116.185 37.8598 115.186 39.1611 113.818 39.9512L88.0957 54.8018L84.8643 56.668H118.295C119.875 56.668 121.39 57.2959 122.508 58.4131C123.625 59.5305 124.254 61.0467 124.254 62.627C124.254 64.2072 123.625 65.7225 122.508 66.8398C121.39 67.9572 119.875 68.585 118.295 68.585H84.8643L88.0957 70.4512L113.818 85.3027C115.186 86.0931 116.184 87.3941 116.593 88.9199C117.001 90.4459 116.787 92.0722 115.997 93.4404C115.207 94.8082 113.906 95.8059 112.38 96.2148C110.854 96.6237 109.229 96.4104 107.86 95.6211L82.1377 80.7734L78.9062 78.9082L80.7715 82.1396L95.6191 107.862C96.4084 109.231 96.6217 110.856 96.2129 112.382C95.804 113.908 94.8062 115.209 93.4385 115.999C92.0701 116.789 90.444 117.003 88.918 116.594C87.4873 116.21 86.2547 115.309 85.4551 114.07L85.3008 113.818L70.4512 88.0977L68.585 84.8662V118.295C68.585 119.875 67.9572 121.39 66.8398 122.508C65.7225 123.625 64.2072 124.254 62.627 124.254C61.0467 124.254 59.5305 123.625 58.4131 122.508C57.2959 121.39 56.668 119.875 56.668 118.295V84.8662L54.8018 88.0977L39.9531 113.818C39.1627 115.187 37.8604 116.185 36.334 116.594C34.8077 117.002 33.1817 116.787 31.8135 115.997C30.4456 115.207 29.447 113.906 29.0381 112.38C28.6293 110.854 28.8434 109.229 29.6328 107.86L44.4805 82.1396L46.3457 78.9082L43.1143 80.7734L17.3936 95.6211C16.0252 96.4106 14.399 96.6238 12.873 96.2148C11.3473 95.8059 10.046 94.8082 9.25586 93.4404C8.46614 92.0722 8.2525 90.4459 8.66113 88.9199C9.06981 87.3941 10.067 86.0922 11.4346 85.3018L37.1572 70.4512L40.3896 68.585H6.95898C5.37869 68.585 3.86256 67.9573 2.74512 66.8398C1.62782 65.7225 1.00006 64.2071 1 62.627C1 61.0467 1.62768 59.5305 2.74512 58.4131C3.86255 57.2957 5.37874 56.668 6.95898 56.668H40.3896L37.1572 54.8018L11.4355 39.9512C10.0678 39.1607 9.06976 37.859 8.66113 36.333C8.27804 34.9022 8.44229 33.3839 9.11523 32.0723L9.25586 31.8135C10.046 30.4455 11.3471 29.4471 12.873 29.0381C14.3036 28.6547 15.8221 28.8188 17.1338 29.4912L17.3936 29.6328L43.1143 44.4805L46.3457 46.3457L44.4805 43.1143L29.6328 17.3936C29.2417 16.7158 28.9878 15.9672 28.8857 15.1914C28.7838 14.4158 28.8355 13.6277 29.0381 12.8721C29.2407 12.1164 29.5901 11.4077 30.0664 10.7871C30.5429 10.1664 31.1377 9.64502 31.8154 9.25391C33.1838 8.46449 34.8101 8.25123 36.3359 8.66016C37.8616 9.06919 39.163 10.0668 39.9531 11.4346L54.8018 37.1572L56.668 40.3896V6.95898C56.668 5.37874 57.2957 3.86255 58.4131 2.74512C59.5305 1.62768 61.0467 1 62.627 1Z" fill="white" stroke="#6C43E3" stroke-width="2"/>
<circle cx="62.8804" cy="62.8811" r="24.4126" fill="#040404"/>
<circle cx="62.8804" cy="62.8812" r="13.316" fill="white"/>
<circle cx="62.8808" cy="62.8811" r="11.0967" fill="#6C43E3"/>
</svg>
