<svg width="15" height="9" viewBox="0 0 15 9" fill="none" xmlns="http://www.w3.org/2000/svg">
<path d="M0.65 4.97499C0.466667 4.97499 0.308334 4.91665 0.175 4.79999C0.0583335 4.66665 7.45058e-08 4.50832 7.45058e-08 4.32499V3.74999C7.45058e-08 3.58332 0.0583335 3.44165 0.175 3.32499C0.308334 3.19165 0.466667 3.12499 0.65 3.12499H10.95V0.374988C10.95 0.191654 10.9917 0.0833204 11.075 0.0499865C11.175 0.0166536 11.2833 0.0583208 11.4 0.174988L14.8 3.59999C14.9333 3.71665 15 3.86665 15 4.04999C15 4.21665 14.9333 4.36665 14.8 4.49999L11.4 7.89999C11.2833 8.03332 11.175 8.08332 11.075 8.04999C10.9917 8.01665 10.95 7.90832 10.95 7.72499V4.97499H0.65Z" fill="#727272"/>
</svg>
