<svg width="317" height="61" fill="none" xmlns="http://www.w3.org/2000/svg">
    <path id="shape" d="M91.402.528c0 .291.951.529 2.113.529s2.113-.238 2.113-.529c0-.29-.951-.528-2.113-.528s-2.113.238-2.113.528M0 2.642c0 .871.238 1.585.528 1.585.291 0 .529-.476.529-1.057 0-.775.352-1.057 1.32-1.057.727 0 1.321-.237 1.321-.528 0-.291-.832-.528-1.849-.528C.147 1.057 0 1.182 0 2.642m8.453-1.057c0 .291 1.189.528 2.642.528 1.453 0 2.642-.237 2.642-.528 0-.291-1.189-.528-2.642-.528-1.453 0-2.642.237-2.642.528m10.039-.033c0 .309.497.561 1.106.561.662 0 1.217.425 1.382 1.057.415 1.588 1.305 1.271 1.113-.396-.139-1.211-.453-1.481-1.884-1.619-.965-.093-1.717.081-1.717.397m21.982.34c-.464 1.21-.394 2.335.146 2.335.257 0 .591-.476.743-1.057.187-.714.721-1.057 1.647-1.057.753 0 1.37-.237 1.37-.528 0-.9-3.55-.62-3.906.307m8.661-.307c0 .291 1.07.528 2.377.528 1.308 0 2.378-.237 2.378-.528 0-.291-1.07-.528-2.378-.528-1.307 0-2.377.237-2.377.528m9.51 0c0 .291.594.528 1.321.528.968 0 1.321.282 1.321 1.057 0 .581.237 1.057.528 1.057.291 0 .528-.714.528-1.585 0-1.46-.146-1.585-1.849-1.585-1.017 0-1.849.237-1.849.528m24.587.187c-.861.367-1.317.822-1.012 1.01.676.418 4.427-.672 4.427-1.286 0-.629-1.594-.501-3.415.276m17.151-.276c0 .66 3.867 1.717 4.386 1.198.247-.247-.317-.717-1.254-1.043-2.022-.705-3.132-.76-3.132-.155m20.704 1.237c.204 2.065 1.486 2.707 1.486.745 0-.861.293-1.365.793-1.365.436 0 .792-.237.792-.528 0-.291-.728-.528-1.618-.528-1.501 0-1.607.122-1.453 1.676m6.77-1.148c0 .291.951.528 2.113.528s2.113-.237 2.113-.528c0-.291-.951-.528-2.113-.528s-2.113.237-2.113.528m7.925 0c0 .291.951.528 2.113.528s2.113-.237 2.113-.528c0-.291-.951-.528-2.113-.528s-2.113.237-2.113.528m7.925-.066c0 .559 3.085 1.237 3.752.825 1.101-.681.329-1.287-1.639-1.287-1.162 0-2.113.208-2.113.462m32.228 1.123c0 1.789.79 2.134 1.21.528.152-.581.655-1.057 1.118-1.057.463 0 .842-.237.842-.528 0-.291-.713-.528-1.585-.528-1.409 0-1.585.176-1.585 1.585m6.868-1.057c0 .291.832.528 1.85.528 1.017 0 1.849-.237 1.849-.528 0-.291-.832-.528-1.849-.528-1.018 0-1.85.237-1.85.528m6.869 0c0 .291.832.528 1.849.528s1.849-.237 1.849-.528c0-.291-.832-.528-1.849-.528s-1.849.237-1.849.528m7.396 0c0 .291.832.528 1.849.528 1.018 0 1.85-.237 1.85-.528 0-.291-.832-.528-1.85-.528-1.017 0-1.849.237-1.849.528m7.397 0c0 .291.832.528 1.849.528s1.849-.237 1.849-.528c0-.291-.832-.528-1.849-.528s-1.849.237-1.849.528m6.868 0c0 .291.476.528 1.057.528.775 0 1.057.353 1.057 1.321 0 .727.237 1.321.528 1.321.291 0 .528-.832.528-1.849 0-1.703-.125-1.849-1.585-1.849-.871 0-1.585.237-1.585.528m8.982 1.057c0 1.789.79 2.134 1.21.528.152-.581.655-1.057 1.118-1.057.463 0 .842-.237.842-.528 0-.291-.713-.528-1.585-.528-1.409 0-1.585.176-1.585 1.585m7.397-1.057c0 .291.951.528 2.113.528s2.113-.237 2.113-.528c0-.291-.951-.528-2.113-.528s-2.113.237-2.113.528m7.925 0c0 .291.951.528 2.113.528s2.113-.237 2.113-.528c0-.291-.951-.528-2.113-.528s-2.113.237-2.113.528m7.925 0c0 .291.327.528.726.528.4 0 1.47.149 2.378.331 1.307.261 1.651.151 1.651-.529 0-.665-.535-.858-2.378-.858-1.307 0-2.377.237-2.377.528m27.473 1.057c0 .871.238 1.585.528 1.585.291 0 .529-.476.529-1.057 0-.587.352-1.057.792-1.057.436 0 .793-.237.793-.528 0-.291-.595-.528-1.321-.528-1.116 0-1.321.246-1.321 1.585m5.812-1.057c0 .291.832.528 1.849.528s1.849-.237 1.849-.528c0-.291-.832-.528-1.849-.528s-1.849.237-1.849.528m6.868 0c0 .291.832.528 1.849.528s1.849-.237 1.849-.528c0-.291-.832-.528-1.849-.528s-1.849.237-1.849.528m6.868 0c0 .291.341.528.757.528.417 0 .908.476 1.093 1.057.466 1.471 1.521 1.347 1.125-.132-.175-.654-.322-1.367-.326-1.585-.011-.604-2.649-.473-2.649.132m12.68 1.057c0 1.056.264 1.585.793 1.585.44 0 .792-.47.792-1.057 0-.775.353-1.057 1.321-1.057.727 0 1.321-.237 1.321-.528 0-.291-.951-.528-2.113-.528-1.996 0-2.114.088-2.114 1.585m9.51-1.057c0 .291.498.528 1.106.528.662 0 1.218.425 1.383 1.057.42 1.606 1.21 1.261 1.21-.528 0-1.46-.147-1.585-1.849-1.585-1.018 0-1.85.237-1.85.528m-160.085.902c0 .555 3.753 1.861 4.165 1.45.472-.473-.748-1.273-2.464-1.616-.968-.193-1.701-.122-1.701.166m100.384.313c0 .58 2.72 1.955 3.868 1.955.978 0 .151-.96-1.509-1.751-2.244-1.07-2.359-1.08-2.359-.204M75.821 6.334c-.832.869-1.35 1.743-1.15 1.943.387.387 3.522-2.367 3.522-3.093 0-.835-.877-.41-2.372 1.15m33.016-1.15c0 .726 3.135 3.48 3.522 3.093.2-.2-.318-1.074-1.15-1.943-1.495-1.56-2.372-1.985-2.372-1.15m52.305 1.057c0 .726 3.135 3.479 3.522 3.093.2-.2-.318-1.074-1.15-1.943-1.495-1.56-2.372-1.985-2.372-1.15m99.232.898c-.423.423 1.595 3.956 2.26 3.956.262 0 .475-.297.473-.66-.003-.929-2.314-3.715-2.733-3.296M0 10.303c0 1.017.238 1.849.528 1.849.291 0 .529-.832.529-1.849 0-1.018-.238-1.85-.529-1.85-.29 0-.528.832-.528 1.85m22.197-1.189c.014 1.294.652 3.038 1.111 3.038.536 0 .619-1.631.146-2.863-.381-.993-1.267-1.117-1.257-.175m16.627.962c-.334 1.52-.052 2.576.531 1.993.143-.142.41-1.014.595-1.937.439-2.195-.644-2.249-1.126-.056m22.463.227c0 1.017.237 1.849.528 1.849.291 0 .528-.832.528-1.849 0-1.018-.237-1.85-.528-1.85-.291 0-.528.832-.528 1.85m114.648 0c0 1.017.238 1.849.528 1.849.291 0 .529-.832.529-1.849 0-1.018-.238-1.85-.529-1.85-.29 0-.528.832-.528 1.85m44.38 0c0 1.017.238 1.849.528 1.849.291 0 .529-.832.529-1.849 0-1.018-.238-1.85-.529-1.85-.29 0-.528.832-.528 1.85m50.72 0c0 1.017.238 1.849.528 1.849.291 0 .529-.832.529-1.849 0-1.018-.238-1.85-.529-1.85-.29 0-.528.832-.528 1.85m23.002-.133c.424 1.98.536 2.16 1.179 1.905.64-.254-.282-3.622-.991-3.622-.35 0-.419.636-.188 1.717m9.327.265c.09 1.089.401 1.981.692 1.981.29 0 .602-.892.692-1.981.128-1.542-.026-1.982-.692-1.982-.667 0-.82.44-.692 1.982m12.051-.132c0 1.017.238 1.849.528 1.849.291 0 .529-.832.529-1.849 0-1.018-.238-1.85-.529-1.85-.29 0-.528.832-.528 1.85m-194.427.792c0 1.409.176 1.585 1.585 1.585.872 0 1.585-.238 1.585-.528 0-.291-.356-.529-.792-.529-.44 0-.793-.469-.793-1.056 0-.587-.352-1.057-.792-1.057-.529 0-.793.528-.793 1.585m92.459-.479c0 .662-.425 1.217-1.057 1.383-1.606.42-1.261 1.209.528 1.209 1.46 0 1.585-.146 1.585-1.849 0-1.017-.237-1.849-.528-1.849-.291 0-.528.498-.528 1.106m69.211-.049c0 .587.353 1.056.793 1.056.44 0 .792-.469.792-1.056 0-.587-.352-1.057-.792-1.057-.44 0-.793.47-.793 1.057m-271.035.484c0 .649.341 1.101.832 1.101.492 0 .761-.36.66-.881-.257-1.326-1.492-1.508-1.492-.22m37.864-.66c-.643.643-.364 1.761.441 1.761.44 0 .792-.47.792-1.057 0-1.053-.563-1.374-1.233-.704m41.69.639c-.437.708.134.91 2.469.874 1.09-.016 2.041-.265 2.114-.552.175-.688-4.168-.993-4.583-.322m36.68 1.057c0 .693 1.365 1.693 1.765 1.293.724-.723.307-1.757-.709-1.757-.581 0-1.056.209-1.056.464M70.8 13.991c-.821 2.488-.027 3.713.844 1.301.812-2.248.883-3.14.25-3.14-.268 0-.76.827-1.094 1.839m43.889-1.179c.022.363.336 1.479.697 2.48.871 2.412 1.665 1.187.844-1.301-.581-1.761-1.625-2.559-1.541-1.179m25.848.132c0 .436.237.793.528.793.291 0 .528-.357.528-.793 0-.436-.237-.792-.528-.792-.291 0-.528.356-.528.792m3.698-.264c0 .291.832.528 1.849.528s1.849-.237 1.849-.528c0-.291-.832-.528-1.849-.528s-1.849.237-1.849.528m43.852.283c0 .647.213.697 1.056.245.582-.311 1.057-.676 1.057-.811s-.475-.245-1.057-.245c-.597 0-1.056.352-1.056.811m6.075-.283c.18.291 1.131.528 2.114.528.983 0 1.934-.237 2.113-.528.2-.323-.621-.528-2.113-.528s-2.313.205-2.114.528m8.718 0c0 .291.951.528 2.113.528 1.163 0 2.114-.237 2.114-.528 0-.291-.951-.528-2.114-.528-1.162 0-2.113.237-2.113.528m29.587.264c0 .436.212.793.471.793.26 0 .609-.357.776-.793.186-.483.001-.792-.471-.792a.786.786 0 0 0-.776.792m4.226-.264c0 .291.714.528 1.585.528.872 0 1.585-.237 1.585-.528 0-.291-.713-.528-1.585-.528-.871 0-1.585.237-1.585.528m6.34 0c0 .291.714.528 1.585.528.872 0 1.585-.237 1.585-.528 0-.291-.713-.528-1.585-.528-.871 0-1.585.237-1.585.528M84.274 14.259c-.832.869-1.349 1.743-1.15 1.943.387.387 3.523-2.367 3.523-3.093 0-.835-.878-.41-2.373 1.15m16.109-1.15c0 .726 3.136 3.48 3.523 3.093.199-.2-.318-1.074-1.15-1.943-1.495-1.56-2.373-1.985-2.373-1.15m66.437.408c-.476.477.926 4.094 1.685 4.347.676.226.563-.485-.552-3.467-.469-1.254-.632-1.38-1.133-.88m82.025.138c0 .245.452.855 1.004 1.355 1.24 1.122 1.999.22.812-.967-.906-.906-1.816-1.101-1.816-.388m-96.135.478c.043.788 3.04 3.905 3.32 3.452.332-.538-2.121-3.848-2.852-3.848-.269 0-.48.178-.468.396m110.493 2.069c.257 1.326 1.492 1.508 1.492.22 0-.649-.341-1.1-.831-1.1-.492 0-.762.359-.661.88m-251.58 1.761c0 1.163.238 2.114.529 2.114.29 0 .528-.951.528-2.114 0-1.162-.238-2.113-.528-2.113-.291 0-.529.951-.529 2.113m37.38-1.749c-.509.133-.928.522-.932.863-.004.342-.159 1.189-.344 1.882-.252.939-.149 1.197.403 1.013.408-.136.891-.94 1.075-1.788l.333-1.542.063 1.718c.09 2.481 1.119 2.117 1.119-.397 0-1.162-.178-2.085-.396-2.052-.218.034-.813.17-1.321.303m233.655 1.485c0 1.017.238 1.849.529 1.849.29 0 .528-.832.528-1.849s-.238-1.849-.528-1.849c-.291 0-.529.832-.529 1.849m1.762-.731c.186.693.34 1.557.344 1.92.004.363.334.66.733.66.963 0 .341-3.255-.687-3.597-.537-.179-.639.086-.39 1.017M0 18.227c0 1.018.238 1.85.528 1.85.291 0 .529-.832.529-1.85 0-1.017-.238-1.849-.529-1.849-.29 0-.528.832-.528 1.849m13.216-.66c.01 1.335.834 2.901 1.288 2.447.439-.439-.294-3.636-.833-3.636-.255 0-.459.535-.455 1.189m10.757.462c.182.908.33 1.859.33 2.114 0 .254.238.462.529.462.583 0 .71-2.08.207-3.391-.587-1.53-1.409-.901-1.066.815m13.235.223c-.316 1.687-.046 2.884.521 2.309.573-.582.912-4.183.394-4.183-.31 0-.722.844-.915 1.874m24.079-.025c0 1.018.237 1.85.528 1.85.291 0 .528-.832.528-1.85 0-1.017-.237-1.849-.528-1.849-.291 0-.528.832-.528 1.849m114.648 0c0 1.018.238 1.85.528 1.85.291 0 .529-.832.529-1.85 0-1.017-.238-1.849-.529-1.849-.29 0-.528.832-.528 1.849m44.38 0c0 1.018.238 1.85.528 1.85.291 0 .529-.832.529-1.85 0-1.017-.238-1.849-.529-1.849-.29 0-.528.832-.528 1.849m50.72 0c0 1.018.238 1.85.528 1.85.291 0 .529-.832.529-1.85 0-1.017-.238-1.849-.529-1.849-.29 0-.528.832-.528 1.849m24.841.042c.456 2.021.865 2.694 1.346 2.214.544-.545-.404-4.105-1.094-4.105-.505 0-.57.483-.252 1.891m7.593-1.137c-.441 1.151-.022 3.099.719 3.344.456.15.66-.451.66-1.94 0-2.103-.799-2.916-1.379-1.404m11.946 1.095c0 1.018.238 1.85.528 1.85.291 0 .529-.832.529-1.85 0-1.017-.238-1.849-.529-1.849-.29 0-.528.832-.528 1.849m-127.328.265c0 .871.237 1.585.528 1.585.291 0 .528-.714.528-1.585 0-.872-.237-1.585-.528-1.585-.291 0-.528.713-.528 1.585m-59.603.66c.091.944.403 1.717.694 1.717.29 0 .602-.773.693-1.717.126-1.301-.042-1.717-.693-1.717-.652 0-.82.416-.694 1.717m12.053.132c0 1.017.237 1.849.528 1.849.291 0 .528-.832.528-1.849s-.237-1.849-.528-1.849c-.291 0-.528.832-.528 1.849m91.93.529c0 1.017.237 1.849.528 1.849.291 0 .528-.832.528-1.849 0-1.018-.237-1.85-.528-1.85-.291 0-.528.832-.528 1.85m19.02-1.057c0 .436.237.792.528.792.291 0 .528-.356.528-.792 0-.436-.237-.793-.528-.793-.291 0-.528.357-.528.793m11.824-.025c-.364.949.226 1.999.892 1.587.67-.413.626-2.355-.053-2.355-.3 0-.677.346-.839.768m-11.824 2.138c0 .436.237.793.528.793.291 0 .528-.357.528-.793 0-.436-.237-.792-.528-.792-.291 0-.528.356-.528.792M81.163 22.265c-.466 2.333-.424 2.567.464 2.567.551 0 .793-.555.793-1.818 0-2.364-.834-2.861-1.257-.749m23.799-1.308c-.559.559-.408 3.875.176 3.875.291 0 .529-.951.529-2.114 0-2.159-.088-2.378-.705-1.761m-35.75 2.29c0 1.162.237 2.113.528 2.113.291 0 .528-.951.528-2.113 0-1.163-.237-2.114-.528-2.114-.291 0-.528.951-.528 2.114m47.55 0c0 1.162.237 2.113.528 2.113.291 0 .528-.951.528-2.113 0-1.163-.237-2.114-.528-2.114-.291 0-.528.951-.528 2.114m39.82.132c.175.654.322 1.842.326 2.641.004.8.245 1.453.535 1.453.291 0 .529-1.188.529-2.641 0-2.081-.182-2.642-.854-2.642-.628 0-.77.315-.536 1.189m11.956 1.717c0 1.307.238 2.377.529 2.377.29 0 .528-1.07.528-2.377 0-1.308-.238-2.378-.528-2.378-.291 0-.529 1.07-.529 2.378m19.549-.573c0 .461.376.837.836.837.933 0 .771-1.137-.209-1.464-.345-.115-.627.167-.627.627m61.587.269c-.494.545-.676 1.128-.406 1.296.271.167.896-.143 1.39-.688.494-.545.676-1.129.405-1.296-.27-.167-.896.142-1.389.688m32.984 1.096c0 1.163.238 2.114.529 2.114.29 0 .528-.951.528-2.114 0-1.162-.238-2.113-.528-2.113-.291 0-.529.951-.529 2.113m3.871-.198c.171 1.053.44 2.043.598 2.201.621.622.865-.404.526-2.213-.474-2.526-1.534-2.516-1.124.012M0 26.417c0 1.162.238 2.113.528 2.113.291 0 .529-.951.529-2.113 0-1.163-.238-2.114-.529-2.114-.29 0-.528.951-.528 2.114m11.623-.265c0 1.018.238 1.85.529 1.85.29 0 .528-.832.528-1.85 0-1.017-.238-1.849-.528-1.849-.291 0-.529.832-.529 1.849m3.178-.66c.01 1.335.834 2.901 1.288 2.447.439-.439-.294-3.636-.833-3.636-.255 0-.459.535-.455 1.189m10.757.462c.182.908.33 1.859.33 2.114 0 .254.238.462.529.462.583 0 .71-2.08.207-3.391-.587-1.53-1.409-.901-1.066.815m10.065.223c-.316 1.687-.046 2.884.521 2.309.573-.582.912-4.183.394-4.183-.31 0-.722.844-.915 1.874m10.863-1.213c-.004.363-.159 1.227-.344 1.92-.249.93-.148 1.196.39 1.017 1.027-.343 1.649-3.598.687-3.598-.399 0-.729.298-.733.661m3.177 1.188c0 1.018.238 1.85.529 1.85.29 0 .528-.832.528-1.85 0-1.017-.238-1.849-.528-1.849-.291 0-.529.832-.529 1.849m11.624.265c0 1.162.237 2.113.528 2.113.291 0 .528-.951.528-2.113 0-1.163-.237-2.114-.528-2.114-.291 0-.528.951-.528 2.114m114.648-.296c0 1 .238 1.965.528 2.145.319.197.529-.523.529-1.818 0-1.18-.238-2.145-.529-2.145-.29 0-.528.818-.528 1.818m17.699-1.289c.18.29 1.145.528 2.145.528s1.818-.238 1.818-.528c0-.291-.965-.529-2.145-.529-1.295 0-2.015.21-1.818.529m7.661 0c0 .29.818.528 1.818.528s1.965-.238 2.144-.528c.198-.319-.522-.529-1.817-.529-1.18 0-2.145.238-2.145.529m7.925 0c0 .29.475.528 1.057.528.704 0 1.056.352 1.056 1.057 0 .581.238 1.056.529 1.056.29 0 .528-.713.528-1.585 0-1.409-.176-1.585-1.585-1.585-.872 0-1.585.238-1.585.529m11.095 1.289c0 1 .238 1.965.528 2.145.319.197.529-.523.529-1.818 0-1.18-.238-2.145-.529-2.145-.29 0-.528.818-.528 1.818m50.72.296c0 1.162.238 2.113.528 2.113.291 0 .529-.951.529-2.113 0-1.163-.238-2.114-.529-2.114-.29 0-.528.951-.528 2.114m26.615-.463c.181.908.33 1.859.33 2.114 0 .254.349.462.776.462.427 0 .684-.297.572-.66-.112-.364-.346-1.315-.521-2.114-.455-2.075-1.573-1.883-1.157.198m17.765.494c0 1.295.209 2.015.528 1.818.291-.18.529-1.145.529-2.145s-.238-1.818-.529-1.818c-.29 0-.528.965-.528 2.145m-187.03.233c0 1.291.239 1.849.793 1.849.553 0 .792-.558.792-1.849 0-1.292-.239-1.849-.792-1.849-.554 0-.793.557-.793 1.849m12.152 0c0 1.017.237 1.849.528 1.849.291 0 .528-.832.528-1.849s-.237-1.849-.528-1.849c-.291 0-.528.832-.528 1.849m120.299-.507c-.524.72-.785 1.58-.579 1.912.374.606 1.228-.229 2.382-2.33.805-1.464-.684-1.119-1.803.418m42.427.507c0 1.291.239 1.849.793 1.849.553 0 .792-.558.792-1.849 0-1.292-.239-1.849-.792-1.849-.554 0-.793.557-.793 1.849m-70.796-.264c0 .587.352 1.056.792 1.056.889 0 .925-.096.472-1.277-.453-1.181-1.264-1.039-1.264.221m4.226.528c0 .291.714.528 1.585.528.872 0 1.585-.237 1.585-.528 0-.291-.713-.528-1.585-.528-.871 0-1.585.237-1.585.528m6.34 0c0 .291.714.528 1.585.528.872 0 1.585-.237 1.585-.528 0-.291-.713-.528-1.585-.528-.871 0-1.585.237-1.585.528m-173.821 3.17c0 .872.237 1.585.528 1.585.291 0 .528-.713.528-1.585s-.237-1.585-.528-1.585c-.291 0-.528.713-.528 1.585m11.722.132c.091.944.403 1.717.693 1.717.291 0 .603-.773.694-1.717.126-1.301-.042-1.717-.694-1.717-.651 0-.819.416-.693 1.717m23.676-.163c0 .854.238 1.701.528 1.88.315.194.529-.435.529-1.554 0-1.034-.238-1.88-.529-1.88-.29 0-.528.699-.528 1.554m12.152.031c0 .872.237 1.585.528 1.585.291 0 .528-.713.528-1.585s-.237-1.585-.528-1.585c-.291 0-.528.713-.528 1.585m139.083.379c-.9.324-.839 1.734.076 1.734.797 0 1.568-1.417.958-1.761-.205-.115-.67-.103-1.034.027m26.813 3.319c0 1.163.238 2.114.529 2.114.29 0 .528-.951.528-2.114 0-1.162-.238-2.113-.528-2.113-.291 0-.529.951-.529 2.113m5.684-1.785c-.525.888.24 3.899.991 3.899.541 0 .649-.393.397-1.453-.469-1.972-1.056-3.007-1.388-2.446M0 34.342c0 1.162.238 2.113.528 2.113.291 0 .529-.951.529-2.113 0-1.163-.238-2.114-.529-2.114-.29 0-.528.951-.528 2.114m11.623-.264c0 1.017.238 1.849.529 1.849.29 0 .528-.832.528-1.849 0-1.018-.238-1.85-.528-1.85-.291 0-.529.832-.529 1.85m4.464-1.189c.112.363.355 1.348.541 2.19.468 2.124 1.445.999 1.012-1.167-.186-.926-.657-1.684-1.047-1.684-.39 0-.618.298-.506.661m28.617 1.023c-.434 2.166.543 3.291 1.012 1.167.185-.842.429-1.827.541-2.19.112-.363-.116-.661-.507-.661-.39 0-.861.758-1.046 1.684m4.959.166c0 1.017.238 1.849.529 1.849.29 0 .528-.832.528-1.849 0-1.018-.238-1.85-.528-1.85-.291 0-.529.832-.529 1.85m11.624.264c0 1.162.237 2.113.528 2.113.291 0 .528-.951.528-2.113 0-1.163-.237-2.114-.528-2.114-.291 0-.528.951-.528 2.114m67.098-.264c0 1.291.239 1.849.793 1.849.553 0 .792-.558.792-1.849 0-1.292-.239-1.85-.792-1.85-.554 0-.793.558-.793 1.85m12.152 0c0 1.017.237 1.849.528 1.849.291 0 .528-.832.528-1.849 0-1.018-.237-1.85-.528-1.85-.291 0-.528.832-.528 1.85m35.398-.032c0 1 .238 1.965.528 2.145.319.197.529-.523.529-1.818 0-1.18-.238-2.145-.529-2.145-.29 0-.528.818-.528 1.818m35.398-.712c0 .662-.424 1.218-1.056 1.383-1.607.42-1.262 1.21.528 1.21 1.459 0 1.585-.147 1.585-1.849 0-1.018-.238-1.85-.528-1.85-.291 0-.529.498-.529 1.106m8.982.712c0 1 .238 1.965.528 2.145.319.197.529-.523.529-1.818 0-1.18-.238-2.145-.529-2.145-.29 0-.528.818-.528 1.818m50.72.296c0 1.162.238 2.113.528 2.113.291 0 .529-.951.529-2.113 0-1.163-.238-2.114-.529-2.114-.29 0-.528.951-.528 2.114m44.38.031c0 1.295.209 2.015.528 1.818.291-.18.529-1.145.529-2.145s-.238-1.818-.529-1.818c-.29 0-.528.965-.528 2.145m-288.293-.498c.185.692.34 1.556.344 1.92.004.363.334.66.733.66.962 0 .34-3.255-.687-3.597-.538-.18-.639.086-.39 1.017m7.012-.283c-.473 1.233-.39 2.863.146 2.863.459 0 1.097-1.744 1.111-3.038.01-.941-.876-.818-1.257.175m134.404 1.806c0 1.453.238 2.642.529 2.642.29 0 .528-1.189.528-2.642 0-1.453-.238-2.641-.528-2.641-.291 0-.529 1.188-.529 2.641m90.639-2.161c-.312.505 1.691 2.466 2.1 2.058.435-.436-.292-1.901-1.097-2.21-.404-.155-.855-.087-1.003.152m40.409 1.176c.518 1.808.89 2.364 1.304 1.95.521-.521-.411-3.606-1.09-3.606-.522 0-.574.403-.214 1.656m3.778.325c.09 1.09.401 1.981.692 1.981.29 0 .602-.891.692-1.981.128-1.542-.026-1.981-.692-1.981-.667 0-.82.439-.692 1.981m-146.456-.264c-.004.654-.151 1.723-.326 2.377-.234.874-.092 1.189.536 1.189.66 0 .854-.54.854-2.377 0-1.308-.238-2.378-.529-2.378-.29 0-.531.535-.535 1.189m31.179 1.233c0 .46.282.742.627.627.98-.327 1.142-1.464.209-1.464a.838.838 0 0 0-.836.837m5.283-.309c0 .291.951.529 2.113.529 1.163 0 2.114-.238 2.114-.529 0-.29-.951-.528-2.114-.528-1.162 0-2.113.238-2.113.528m7.925 0c0 .291.951.529 2.113.529 1.163 0 2.114-.238 2.114-.529 0-.29-.951-.528-2.114-.528-1.162 0-2.113.238-2.113.528m-132.083 1.85c0 1.017.237 1.849.528 1.849.291 0 .528-.832.528-1.849 0-1.018-.237-1.85-.528-1.85-.291 0-.528.832-.528 1.85m11.821-.199c.182.908.33 1.859.33 2.114 0 .254.238.462.529.462.29 0 .528-.951.528-2.113 0-1.599-.209-2.114-.859-2.114-.679 0-.789.344-.528 1.651m23.577.463c0 1.162.238 2.113.528 2.113.291 0 .529-.951.529-2.113 0-1.163-.238-2.114-.529-2.114-.29 0-.528.951-.528 2.114m12.152-.264c0 1.017.237 1.849.528 1.849.291 0 .528-.832.528-1.849 0-1.018-.237-1.85-.528-1.85-.291 0-.528.832-.528 1.85m115.705.775c0 .708.253.943.792.736.436-.167.793-.635.793-1.04 0-.404-.357-.736-.793-.736-.436 0-.792.468-.792 1.04m5.283-.214c0 .611.438.783 1.676.661 2.422-.239 2.604-1.487.217-1.487-1.365 0-1.893.231-1.893.826m7.397.004c0 .55.385.772 1.147.66 1.691-.249 1.873-1.49.218-1.49-.888 0-1.365.29-1.365.83m3.799.795c.104.312.415.568.691.568.277 0 .588-.256.692-.568.104-.312-.207-.568-.692-.568-.484 0-.795.256-.691.568m12.787.796c.176.46.32 1.292.32 1.849 0 .558.238 1.014.529 1.014.29 0 .528-.832.528-1.85 0-1.346-.231-1.849-.849-1.849-.557 0-.739.288-.528.836m-133.348 2.07c0 1.292.239 1.849.793 1.849.553 0 .792-.557.792-1.849 0-1.291-.239-1.849-.792-1.849-.554 0-.793.558-.793 1.849m12.152 0c0 1.017.237 1.849.528 1.849.291 0 .528-.832.528-1.849s-.237-1.849-.528-1.849c-.291 0-.528.832-.528 1.849M0 42.267c0 1.162.238 2.113.528 2.113.291 0 .529-.951.529-2.113 0-1.163-.238-2.114-.529-2.114-.29 0-.528.951-.528 2.114m11.623 0c0 1.162.238 2.113.529 2.113.29 0 .528-.951.528-2.113 0-1.163-.238-2.114-.528-2.114-.291 0-.529.951-.529 2.114m6.348-.661c.009 1.592.8 3.199 1.319 2.681.466-.467-.294-4.134-.857-4.134-.258 0-.466.654-.462 1.453m25.113.45c-.391 2.086.015 3.003.788 1.78.628-.993.656-3.683.038-3.683-.258 0-.63.857-.826 1.903m6.579-.085c0 1 .238 1.965.529 2.145.319.197.528-.523.528-1.818 0-1.18-.238-2.145-.528-2.145-.291 0-.529.818-.529 1.818m11.624.296c0 1.162.237 2.113.528 2.113.291 0 .528-.951.528-2.113 0-1.163-.237-2.114-.528-2.114-.291 0-.528.951-.528 2.114m114.648-.296c0 1 .238 1.965.528 2.145.319.197.529-.523.529-1.818 0-1.18-.238-2.145-.529-2.145-.29 0-.528.818-.528 1.818m12.152-.233c0 .872.237 1.585.528 1.585.291 0 .528-.713.528-1.585 0-.871-.237-1.585-.528-1.585-.291 0-.528.714-.528 1.585m32.228.233c0 1 .238 1.965.528 2.145.319.197.529-.523.529-1.818 0-1.18-.238-2.145-.529-2.145-.29 0-.528.818-.528 1.818m50.72.296c0 1.162.238 2.113.528 2.113.291 0 .529-.951.529-2.113 0-1.163-.238-2.114-.529-2.114-.29 0-.528.951-.528 2.114m11.623-.265c0 1.018.238 1.85.529 1.85.29 0 .528-.832.528-1.85 0-1.017-.238-1.849-.528-1.849-.291 0-.529.832-.529 1.849m7.405-.66c.01 1.397.841 2.893 1.334 2.4.48-.479-.262-3.589-.856-3.589-.267 0-.482.535-.478 1.189m25.352.956c0 1.295.209 2.015.528 1.818.291-.18.529-1.145.529-2.145s-.238-1.818-.529-1.818c-.29 0-.528.965-.528 2.145m-286.69-.428c.176.654.322 1.605.326 2.114.004.508.245.924.536.924.583 0 .71-2.08.207-3.391-.497-1.295-1.428-.987-1.069.353m3.824-.353c-.477 1.244-.388 3.391.142 3.391.401 0 1.122-2.418 1.122-3.764 0-.784-.925-.511-1.264.373m217.353.485c0 .727.237 1.321.528 1.321.291 0 .528-.594.528-1.321 0-.726-.237-1.32-.528-1.32-.291 0-.528.594-.528 1.32m51.301-.66c.174 2.184.841 3.195 2.203 3.34 1.357.145 1.442.029 1.442-1.967 0-2.492-1.151-2.593-1.607-.141l-.286 1.542-.361-1.717c-.338-1.61-1.506-2.497-1.391-1.057m-133.652 2.082c-1.017 2.718-1.18 3.598-.664 3.598.668 0 1.085-.669 1.654-2.652.541-1.886-.328-2.716-.99-.946m64.916.692c0 1.017.237 1.849.528 1.849.291 0 .528-.832.528-1.849s-.237-1.849-.528-1.849c-.291 0-.528.832-.528 1.849m-78.652.319c-.688.87-1.105 1.728-.928 1.905.384.383 2.332-1.293 3.039-2.615.842-1.573-.721-1.048-2.111.71m-83.547.184c0 1.092 1.143 3.459 1.67 3.459.59 0 .559-.567-.136-2.562-.597-1.712-1.534-2.26-1.534-.897m13.056-.438c-.504.504 1.679 3.369 2.566 3.369.416 0 .757-.193.757-.429 0-.704-2.95-3.313-3.323-2.94m18.461 1.171c-1.583 1.652-1.743 2.198-.645 2.198.927 0 3.14-2.985 2.504-3.378-.252-.156-1.088.376-1.859 1.18m13.443.164c-.704 2.021-.726 2.562-.103 2.562.442 0 1.637-2.757 1.637-3.777 0-1.095-1.006-.298-1.534 1.215m146.825 3.355c0 1.307.238 2.377.529 2.377.29 0 .528-1.07.528-2.377 0-1.308-.238-2.378-.528-2.378-.291 0-.529 1.07-.529 2.378m-133.961-1.275c-.195.316-.111.818.187 1.116.667.667 1.691.104 1.691-.929 0-.89-1.36-1.025-1.878-.187m12.445.218c0 .436.237.793.528.793.291 0 .528-.357.528-.793 0-.436-.237-.792-.528-.792-.291 0-.528.356-.528.792m5.415-.41c-2.298.285-2.198 1.203.132 1.203 1.292 0 1.849-.239 1.849-.793 0-.436-.059-.754-.132-.708-.072.047-.905.181-1.849.298m42.135.41c0 .44.469.793 1.056.793 1.26 0 1.402-.812.221-1.265-1.181-.453-1.277-.417-1.277.472m-66.896.498c-.42 1.096-.047 2.549.722 2.804.387.129.66-.235.66-.88 0-.626.342-1.101.793-1.101a.794.794 0 0 0 .792-.792c0-1.035-2.571-1.062-2.967-.031m73.236-.234c0 .291.951.529 2.113.529s2.113-.238 2.113-.529c0-.29-.951-.528-2.113-.528s-2.113.238-2.113.528m8.453 0c0 .291.951.529 2.113.529 1.163 0 2.114-.238 2.114-.529 0-.29-.951-.528-2.114-.528-1.162 0-2.113.238-2.113.528m8.717 0c.18.291.788.529 1.353.529.673 0 1.025.363 1.025 1.056 0 .581.238 1.057.528 1.057.291 0 .529-.713.529-1.585 0-1.464-.144-1.585-1.881-1.585-1.119 0-1.748.214-1.554.528m38.305 1.585c0 1.163.237 2.114.528 2.114.291 0 .528-.951.528-2.114 0-1.162-.237-2.113-.528-2.113-.291 0-.528.951-.528 2.113M0 50.192c0 1.162.238 2.113.528 2.113.291 0 .529-.951.529-2.113 0-1.163-.238-2.114-.529-2.114-.29 0-.528.951-.528 2.114m11.623 0c0 1.162.238 2.113.529 2.113.29 0 .528-.951.528-2.113 0-1.163-.238-2.114-.528-2.114-.291 0-.529.951-.529 2.114m7.933-.661c.009 1.592.8 3.199 1.319 2.681.466-.467-.294-4.134-.857-4.134-.258 0-.466.654-.462 1.453m21.943.45c-.391 2.086.015 3.003.788 1.78.628-.993.656-3.683.038-3.683-.258 0-.63.857-.826 1.903m8.164-.085c0 1 .238 1.965.529 2.145.319.197.528-.523.528-1.818 0-1.18-.238-2.145-.528-2.145-.291 0-.529.818-.529 1.818m11.624.296c0 1.162.237 2.113.528 2.113.291 0 .528-.951.528-2.113 0-1.163-.237-2.114-.528-2.114-.291 0-.528.951-.528 2.114m114.648 0c0 1.162.238 2.113.528 2.113.291 0 .529-.951.529-2.113 0-1.163-.238-2.114-.529-2.114-.29 0-.528.951-.528 2.114m44.38 0c0 1.162.238 2.113.528 2.113.291 0 .529-.951.529-2.113 0-1.163-.238-2.114-.529-2.114-.29 0-.528.951-.528 2.114m50.72 0c0 1.162.238 2.113.528 2.113.291 0 .529-.951.529-2.113 0-1.163-.238-2.114-.529-2.114-.29 0-.528.951-.528 2.114m11.623 0c0 1.162.238 2.113.529 2.113.29 0 .528-.951.528-2.113 0-1.163-.238-2.114-.528-2.114-.291 0-.529.951-.529 2.114m9.253-.459c.469 2.185.735 2.666 1.286 2.325.641-.396-.159-3.602-.966-3.871-.539-.179-.614.181-.32 1.546m23.504.459c0 1.162.238 2.113.528 2.113.291 0 .529-.951.529-2.113 0-1.163-.238-2.114-.529-2.114-.29 0-.528.951-.528 2.114m-285.201-.667c.266 1.377 2.014 1.531 2.014.177 0-.756-.339-1.095-1.095-1.095s-1.041.284-.919.918m60.659-.39c0 .291 1.189.528 2.642.528 1.453 0 2.642-.237 2.642-.528 0-.291-1.189-.528-2.642-.528-1.453 0-2.642.237-2.642.528m212.39.484c0 .649.341 1.101.832 1.101.492 0 .761-.359.66-.881-.257-1.325-1.492-1.507-1.492-.22m-70.796 1.365c0 1.017.237 1.849.528 1.849.291 0 .528-.832.528-1.849s-.237-1.849-.528-1.849c-.291 0-.528.832-.528 1.849m-69.924 1.237c-1.839 1.919-1.875 3.06-.059 1.871 1.544-1.012 2.568-2.65 1.91-3.057-.247-.153-1.08.381-1.851 1.186m-87.811.127c-.253.41.136 1.125 1.029 1.893 2.615 2.249 3.402 1.304.905-1.088-1.115-1.069-1.636-1.286-1.934-.805m35.528.907c-2.35 2.452-1.531 3.177 1.057.936 1.047-.907 1.318-1.451.924-1.853-.397-.404-.971-.138-1.981.917M0 57.588c0 1.46.147 1.585 1.849 1.585 1.017 0 1.849-.237 1.849-.528 0-.291-.594-.528-1.321-.528-.968 0-1.32-.282-1.32-1.057 0-.581-.238-1.057-.529-1.057-.29 0-.528.714-.528 1.585m11.623-.528c0 .775-.352 1.057-1.32 1.057-.727 0-1.321.237-1.321.528 0 .291.832.528 1.849.528 1.702 0 1.849-.125 1.849-1.585 0-.871-.238-1.585-.528-1.585-.291 0-.529.476-.529 1.057m9.51.528c0 1.46.147 1.585 1.849 1.585 1.018 0 1.85-.237 1.85-.528 0-.291-.595-.528-1.321-.528-.969 0-1.321-.282-1.321-1.057 0-.581-.238-1.057-.528-1.057-.291 0-.529.714-.529 1.585m19.02-.528c0 .775-.352 1.057-1.321 1.057-.726 0-1.32.237-1.32.528 0 .291.832.528 1.849.528 1.702 0 1.849-.125 1.849-1.585 0-.871-.238-1.585-.528-1.585-.291 0-.529.476-.529 1.057m9.51.528c0 1.46.147 1.585 1.849 1.585 1.018 0 1.85-.237 1.85-.528 0-.291-.595-.528-1.321-.528-.969 0-1.321-.282-1.321-1.057 0-.581-.238-1.057-.528-1.057-.291 0-.529.714-.529 1.585m11.624-.528c0 .775-.353 1.057-1.321 1.057-.727 0-1.321.237-1.321.528 0 .291.832.528 1.849.528 1.703 0 1.849-.125 1.849-1.585 0-.871-.237-1.585-.528-1.585-.291 0-.528.476-.528 1.057m59.701.528c0 1.409.176 1.585 1.585 1.585.872 0 1.585-.237 1.585-.528 0-.291-.356-.528-.792-.528-.44 0-.793-.47-.793-1.057s-.352-1.057-.792-1.057c-.529 0-.793.529-.793 1.585m33.371-.691c-1.285.454-2.091 1.01-1.836 1.266.643.643 4.392-.6 4.392-1.456 0-.387-.059-.685-.132-.662-.073.023-1.163.406-2.424.852m21.576.691c0 1.409.176 1.585 1.585 1.585.872 0 1.585-.237 1.585-.528 0-.291-.475-.528-1.057-.528-.704 0-1.056-.353-1.056-1.057 0-.581-.238-1.057-.529-1.057-.29 0-.528.714-.528 1.585m38.04-.528c0 .704-.352 1.057-1.057 1.057-.581 0-1.056.237-1.056.528 0 .291.713.528 1.585.528 1.409 0 1.585-.176 1.585-1.585 0-.871-.238-1.585-.529-1.585-.29 0-.528.476-.528 1.057m6.34.528c0 1.497.117 1.585 2.113 1.585 1.163 0 2.114-.237 2.114-.528 0-.291-.714-.528-1.585-.528-1.233 0-1.585-.235-1.585-1.057 0-.581-.238-1.057-.529-1.057-.29 0-.528.714-.528 1.585m29.587 0c0 1.497.117 1.585 2.113 1.585 1.162 0 2.113-.237 2.113-.528 0-.291-.713-.528-1.585-.528-1.232 0-1.585-.235-1.585-1.057 0-.581-.237-1.057-.528-1.057-.291 0-.528.714-.528 1.585m12.151-.528c0 .822-.352 1.057-1.585 1.057-.871 0-1.585.237-1.585.528 0 .291.951.528 2.114.528 1.996 0 2.113-.088 2.113-1.585 0-.871-.238-1.585-.528-1.585-.291 0-.529.476-.529 1.057m8.982.528c0 1.46.147 1.585 1.849 1.585 1.017 0 1.849-.237 1.849-.528 0-.291-.594-.528-1.321-.528-.968 0-1.32-.282-1.32-1.057 0-.581-.238-1.057-.529-1.057-.29 0-.528.714-.528 1.585m11.623-.528c0 .775-.352 1.057-1.321 1.057-.726 0-1.32.237-1.32.528 0 .291.832.528 1.849.528 1.702 0 1.849-.125 1.849-1.585 0-.871-.238-1.585-.528-1.585-.291 0-.529.476-.529 1.057m11.192.396c.132 1.141.479 1.489 1.62 1.62.8.092 1.453-.086 1.453-.396 0-.31-.475-.563-1.056-.563-.705 0-1.057-.353-1.057-1.057 0-.581-.254-1.057-.563-1.057-.31 0-.489.654-.397 1.453m21.565-.396c0 .704-.352 1.057-1.057 1.057-.581 0-1.056.237-1.056.528 0 .291.713.528 1.585.528 1.409 0 1.585-.176 1.585-1.585 0-.871-.238-1.585-.529-1.585-.29 0-.528.476-.528 1.057m-82.948.264c0 .528-.529.793-1.585.793-.872 0-1.585.237-1.585.528 0 .291.951.528 2.113.528 1.902 0 2.113-.132 2.113-1.321 0-.726-.237-1.32-.528-1.32-.291 0-.528.356-.528.792m-150.314.269c-.336.543.928 1.276 3.092 1.794 1.068.256 1.443.175 1.292-.28-.28-.839-4.006-2.125-4.384-1.514m20.376.233c-1 .345-1.924.946-2.054 1.336-.162.485.05.598.672.36.499-.192 1.199-.349 1.556-.349.955 0 2.674-1.378 2.119-1.699-.262-.151-1.294.007-2.293.352m-73.471.819c0 .291.951.528 2.114.528 1.162 0 2.113-.237 2.113-.528 0-.291-.951-.528-2.113-.528-1.163 0-2.114.237-2.114.528m98.799 0c0 .291.951.528 2.113.528s2.113-.237 2.113-.528c0-.291-.951-.528-2.113-.528s-2.113.237-2.113.528m7.925 0c0 .291.951.528 2.113.528s2.113-.237 2.113-.528c0-.291-.951-.528-2.113-.528s-2.113.237-2.113.528m7.925 0c0 .291.951.528 2.113.528s2.113-.237 2.113-.528c0-.291-.951-.528-2.113-.528s-2.113.237-2.113.528m39.096 0c0 .291.832.528 1.85.528 1.017 0 1.849-.237 1.849-.528 0-.291-.832-.528-1.849-.528-1.018 0-1.85.237-1.85.528m7.397 0c0 .291.832.528 1.849.528s1.849-.237 1.849-.528c0-.291-.832-.528-1.849-.528s-1.849.237-1.849.528m6.868 0c0 .291.951.528 2.114.528 1.162 0 2.113-.237 2.113-.528 0-.291-.951-.528-2.113-.528-1.163 0-2.114.237-2.114.528m7.397 0c0 .291.832.528 1.849.528s1.849-.237 1.849-.528c0-.291-.832-.528-1.849-.528s-1.849.237-1.849.528m95.628 0c0 .291.832.528 1.849.528 1.018 0 1.85-.237 1.85-.528 0-.291-.832-.528-1.85-.528-1.017 0-1.849.237-1.849.528m6.869 0c0 .291.713.528 1.585.528.871 0 1.585-.237 1.585-.528 0-.291-.714-.528-1.585-.528-.872 0-1.585.237-1.585.528M91.138 59.702c-.2.322.61.528 2.082.528 1.324 0 2.408-.238 2.408-.528 0-.291-.937-.529-2.082-.529-1.145 0-2.229.238-2.408.529" fill-rule="evenodd" fill="#000"/>
    
    <style>
    #shape {
        fill: transparent;
        stroke: #6C43E3;
        stroke-width: 1;

        stroke-dasharray: 500;
        stroke-dashoffset: 500;

        animation: draw 2s linear forwards, fillAnim 1s ease 2s forwards;
        }

        @keyframes draw {
        to {
            stroke-dashoffset: 0;
        }
        }

        @keyframes fillAnim {
        to {
            fill: #6C43E3;
        }
    }
    </style>
</svg>