<svg width="155" height="160" viewBox="0 0 155 160" fill="none" xmlns="http://www.w3.org/2000/svg">
<path d="M147.41 118.442L91.1303 17.6799C90.8833 17.3299 89.4447 16.4724 89.033 16.4299H65.0443C64.6161 16.4297 64.1955 16.5466 63.8254 16.7689C63.4553 16.9911 63.1488 17.3106 62.9373 17.6949L7.5805 118.457C7.41097 118.847 7.4255 120.57 7.60472 120.967L19.9078 142.347C20.3438 143.107 21.1357 143.572 21.9907 143.572H132.704C133.116 143.58 134.526 142.707 134.773 142.372L147.381 120.99C147.606 120.607 147.728 120.168 147.733 119.72C147.738 119.272 147.627 118.831 147.41 118.442ZM66.4563 21.4274H84.8407L42.0341 98.0324C41.0847 99.6149 42.3247 101.842 44.1339 101.782H86.3375L95.3468 117.19H13.8435L66.4563 21.4274ZM70.8471 96.7824L77.0932 85.9624L83.4191 96.7824H70.8471ZM23.3663 138.572L13.9452 122.19H99.636C100.065 122.189 100.486 122.071 100.856 121.847C101.226 121.624 101.532 121.303 101.743 120.917C101.954 120.532 102.062 120.095 102.056 119.653C102.05 119.21 101.93 118.777 101.709 118.397L79.9001 81.0899L88.9652 65.3824L128.577 138.575L23.3663 138.572ZM132.794 136.112L91.1473 59.1624C90.94 58.7785 90.6383 58.4578 90.2726 58.2327C89.907 58.0075 89.4902 57.8858 89.0645 57.8799C88.275 57.8924 87.3934 58.3349 86.9502 59.1024L65.2066 96.7824H48.3261L89.0306 23.9324L142.498 119.657L132.794 136.112Z" fill="#C6F216"/>
</svg>
