<svg width="126" height="126" viewBox="0 0 126 126" fill="none" xmlns="http://www.w3.org/2000/svg">
<path d="M116.659 30.5988L64.2302 0.329817C63.8561 0.113752 63.4317 0 62.9997 0C62.5677 0 62.1434 0.113752 61.7693 0.329817C60.2125 1.2288 9.36814 30.583 9.34033 30.5988C8.96623 30.8148 8.65557 31.1254 8.43958 31.4995C8.22359 31.8736 8.10987 32.298 8.10986 32.73V93.2699C8.10987 93.7019 8.22359 94.1262 8.43958 94.5003C8.65557 94.8744 8.96623 95.1851 9.34033 95.4011C65.1673 127.632 40.4768 113.377 61.7693 125.67C62.1434 125.886 62.5677 126 62.9997 126C63.4317 126 63.8561 125.886 64.2302 125.67L116.659 95.4013C117.033 95.1853 117.344 94.8747 117.56 94.5006C117.776 94.1265 117.89 93.7021 117.89 93.2701V32.7302C117.89 31.8509 117.421 31.0386 116.659 30.5988ZM35.9526 20.9182L41.6868 17.6075L91.6553 46.4561V67.2401L85.9209 70.5506L85.9216 51.1907C85.9222 50.7581 85.8087 50.3331 85.5925 49.9584C85.3764 49.5837 85.0653 49.2726 84.6906 49.0565L35.9526 20.9182ZM52.3434 11.455L102.312 40.3035V61.0875L96.5772 64.3982L96.5777 45.0378C96.5777 44.1295 96.072 43.3226 95.3467 42.9037L46.6087 14.7656L52.3434 11.455ZM112.968 79.5445C90.9057 92.2813 83.2434 96.7054 62.9997 108.393L45.0005 98.001V91.3797L61.7754 101.064C62.149 101.279 62.5724 101.391 63.0032 101.391C63.434 101.39 63.8572 101.277 64.2302 101.061L112.968 72.9231V79.5445ZM80.999 52.6084V73.3917L62.9997 83.7835L45.0005 73.3917V52.6084L62.9997 42.2166L80.999 52.6084ZM61.7282 88.7324C62.5159 89.2069 63.4885 89.1931 64.2302 88.7563L112.968 60.6185V67.2399L62.9997 96.0882L45.0005 85.6964V79.075L61.7282 88.7324ZM62.9997 5.30262L112.968 34.1509V54.9352L107.233 58.2459V38.8828C107.233 38.0087 106.767 37.1985 106.003 36.7516L57.2653 8.61356L62.9997 5.30262ZM13.0317 34.1509L31.0307 23.7596L36.7652 27.0703L19.9967 36.7514C19.6226 36.9674 19.3119 37.278 19.0959 37.6521C18.8799 38.0262 18.7662 38.4506 18.7662 38.8825V95.1596L13.0317 91.8492V34.1509ZM23.6881 40.3035L41.6871 29.912L47.4215 33.2226L30.653 42.9037C30.2789 43.1197 29.9682 43.4303 29.7522 43.8044C29.5363 44.1785 29.4225 44.6029 29.4225 45.0349V101.312L23.6881 98.0013V40.3035ZM34.3444 46.4558L52.3437 36.0643L58.0779 39.3752L41.3091 49.0565C40.935 49.2725 40.6243 49.5832 40.4083 49.9573C40.1923 50.3314 40.0786 50.7557 40.0786 51.1877V107.464L34.3441 104.154L34.3444 46.4558ZM112.968 91.8492L62.9997 120.697L45.0005 110.306V103.684L61.7754 113.369C62.1489 113.584 62.5723 113.696 63.0032 113.696C63.4341 113.695 63.8573 113.581 64.2302 113.366L112.968 85.2278V91.8492Z" fill="#040404"/>
</svg>
