<svg width="142" height="142" viewBox="0 0 142 142" fill="none" xmlns="http://www.w3.org/2000/svg">
<path fill-rule="evenodd" clip-rule="evenodd" d="M134.604 23.6666C134.604 19.3513 132.89 15.2127 129.838 12.1614C126.787 9.11 122.648 7.39575 118.333 7.39575H23.6665C19.3512 7.39575 15.2127 9.11 12.1613 12.1614C9.10991 15.2127 7.39566 19.3513 7.39566 23.6666V118.333C7.39566 122.649 9.10991 126.787 12.1613 129.838C15.2127 132.89 19.3512 134.604 23.6665 134.604H82.8332C84.0101 134.604 85.1388 134.137 85.971 133.304C86.8031 132.472 87.2707 131.343 87.2707 130.167C87.2707 128.99 86.8031 127.861 85.971 127.029C85.1388 126.197 84.0101 125.729 82.8332 125.729H23.6665C19.584 125.729 16.2707 122.416 16.2707 118.333V23.6666C16.2707 19.5841 19.584 16.2708 23.6665 16.2708H118.333C122.416 16.2708 125.729 19.5841 125.729 23.6666V118.333C125.729 122.416 122.416 125.729 118.333 125.729H106.5C105.323 125.729 104.194 126.197 103.362 127.029C102.53 127.861 102.062 128.99 102.062 130.167C102.062 131.343 102.53 132.472 103.362 133.304C104.194 134.137 105.323 134.604 106.5 134.604H118.333C122.648 134.604 126.787 132.89 129.838 129.838C132.89 126.787 134.604 122.649 134.604 118.333V23.6666Z" fill="#C6F216"/>
<path fill-rule="evenodd" clip-rule="evenodd" d="M71 39.9375C79.2383 39.9375 87.1392 43.2101 92.9645 49.0355C98.7899 54.8608 102.062 62.7617 102.062 71C102.062 79.2383 98.7899 87.1392 92.9645 92.9645C87.1392 98.7899 79.2383 102.062 71 102.062C62.7617 102.062 54.8608 98.7899 49.0355 92.9645C43.2101 87.1392 39.9375 79.2383 39.9375 71C39.9375 62.7617 43.2101 54.8608 49.0355 49.0355C54.8608 43.2101 62.7617 39.9375 71 39.9375ZM110.938 71C110.938 60.4079 106.73 50.2497 99.2401 42.7599C91.7503 35.2702 81.5921 31.0625 71 31.0625C60.4079 31.0625 50.2497 35.2702 42.7599 42.7599C35.2702 50.2497 31.0625 60.4079 31.0625 71C31.0625 81.5921 35.2702 91.7503 42.7599 99.2401C50.2497 106.73 60.4079 110.938 71 110.938C81.5921 110.938 91.7503 106.73 99.2401 99.2401C106.73 91.7503 110.938 81.5921 110.938 71Z" fill="#C6F216"/>
</svg>
