<svg width="134" height="134" viewBox="0 0 134 134" fill="none" xmlns="http://www.w3.org/2000/svg">
<path d="M67 6.75C68.5987 6.75 70.1323 7.3852 71.2627 8.51562C72.3929 9.64592 73.0272 11.179 73.0273 12.7773V44.5049L74.4277 42.0801L88.8896 17.0254L88.8906 17.0264C89.6903 15.6422 91.0076 14.6322 92.5518 14.2188C94.0958 13.8054 95.7408 14.0219 97.125 14.8213C98.5089 15.6206 99.5189 16.9369 99.9326 18.4805C100.32 19.9277 100.154 21.464 99.4736 22.791L99.3311 23.0537L84.8672 48.1084L83.4688 50.5312L85.8916 49.1328L110.948 34.6689C112.333 33.8702 113.978 33.6537 115.521 34.0674C116.969 34.4553 118.216 35.3674 119.024 36.6201L119.181 36.875C119.979 38.2591 120.195 39.9037 119.781 41.4473C119.393 42.8944 118.482 44.1423 117.229 44.9512L116.974 45.1074L91.9199 59.5723L89.4961 60.9727H121.223C122.821 60.9728 124.354 61.6071 125.484 62.7373C126.615 63.8677 127.25 65.4013 127.25 67C127.25 68.5987 126.615 70.1323 125.484 71.2627C124.354 72.3929 122.821 73.0272 121.223 73.0273H89.4961L91.9199 74.4277L116.974 88.8926C118.357 89.6922 119.367 91.009 119.78 92.5527C120.168 93.9999 120.002 95.5356 119.321 96.8623L119.179 97.125C118.379 98.5089 117.063 99.5189 115.52 99.9326C114.072 100.32 112.536 100.154 111.209 99.4736L110.946 99.3311L85.8916 84.8691L83.4688 83.4707L84.8672 85.8936L99.3291 110.948C100.128 112.333 100.344 113.978 99.9307 115.521C99.5428 116.969 98.6306 118.216 97.3779 119.024L97.123 119.181C95.7389 119.979 94.0943 120.195 92.5508 119.781C91.007 119.368 89.69 118.358 88.8906 116.974H88.8896L74.4277 91.9219L73.0273 89.4971V121.223C73.0272 122.821 72.3929 124.354 71.2627 125.484C70.1323 126.615 68.5987 127.25 67 127.25C65.4013 127.25 63.8677 126.615 62.7373 125.484C61.6071 124.354 60.9728 122.821 60.9727 121.223V89.4971L59.5723 91.9219L45.1094 116.974C44.3097 118.358 42.9924 119.368 41.4482 119.781C39.9042 120.195 38.2592 119.978 36.875 119.179C35.4911 118.379 34.4811 117.063 34.0674 115.52C33.6795 114.072 33.846 112.536 34.5264 111.209L34.6689 110.946L49.1309 85.8936L50.5293 83.4707L48.1064 84.8691L23.0537 99.3311C21.6694 100.13 20.0242 100.346 18.4805 99.9326C17.0334 99.5447 15.7864 98.6326 14.9775 97.3799L14.8213 97.125C14.0225 95.741 13.8064 94.0963 14.2197 92.5527C14.6331 91.009 15.6427 89.6922 17.0264 88.8926L17.0254 88.8916L42.0801 74.4277L44.5039 73.0273H12.7773C11.179 73.0272 9.64592 72.3929 8.51562 71.2627C7.3852 70.1323 6.75 68.5987 6.75 67C6.75 65.4013 7.3852 63.8677 8.51562 62.7373C9.64592 61.6071 11.179 60.9728 12.7773 60.9727H44.5039L42.0801 59.5723L17.0264 45.1074C15.6427 44.3078 14.6331 42.991 14.2197 41.4473C13.8322 40.0001 13.9983 38.4644 14.6787 37.1377L14.8213 36.875C15.6206 35.4911 16.9369 34.4811 18.4805 34.0674C19.9277 33.6795 21.464 33.846 22.791 34.5264L23.0537 34.6689L48.1064 49.1309L50.5293 50.5293L49.1309 48.1064L34.6689 23.0537C34.2732 22.3681 34.0163 21.611 33.9131 20.8262C33.8099 20.0414 33.8624 19.244 34.0674 18.4795C34.2724 17.7149 34.6264 16.998 35.1084 16.3701C35.5904 15.7422 36.1914 15.215 36.877 14.8193C38.2611 14.0208 39.9057 13.8052 41.4492 14.2188C42.993 14.6325 44.31 15.6424 45.1094 17.0264V17.0254L59.5723 42.0801L60.9727 44.5049V12.7773C60.9728 11.179 61.6071 9.64592 62.7373 8.51562C63.8677 7.3852 65.4013 6.75 67 6.75Z" stroke="black" stroke-width="1.5"/>
<circle cx="66.5" cy="66.5" r="12.5" fill="#C6F216"/>
</svg>
