<svg width="174" height="174" viewBox="0 0 174 174" fill="none" xmlns="http://www.w3.org/2000/svg">
<g clip-path="url(#clip0_215_121)">
<path d="M43.6699 94.6465H69.1582V43.3301C69.1582 33.4919 77.1622 25.4883 87 25.4883C93.1967 25.4883 98.6638 28.6655 101.863 33.4746H129.203C124.742 14.2925 107.54 0 87 0C63.0696 0 43.6699 19.3996 43.6699 43.3301V94.6465Z" fill="#C6F216"/>
<path d="M94.6465 130.33V104.842H43.3301C33.4919 104.842 25.4883 96.838 25.4883 86.9999C25.4883 80.8032 28.6655 75.3364 33.4746 72.1368V44.7964C14.2925 49.2582 0 66.4597 0 86.9999C0 110.93 19.3996 130.33 43.3301 130.33H94.6465Z" fill="#040404"/>
<path d="M130.33 79.3535H104.842V130.67C104.842 140.508 96.8377 148.512 86.9999 148.512C80.8032 148.512 75.3361 145.335 72.1368 140.525H44.7964C49.2582 159.708 66.4597 174 86.9999 174C110.93 174 130.33 154.6 130.33 130.67V79.3535Z" fill="#C6F216"/>
<path d="M130.67 43.6699H79.3535V69.1582H130.67C140.508 69.1582 148.512 77.1622 148.512 87C148.512 93.1967 145.335 98.6634 140.525 101.863V129.203C159.708 124.742 174 107.54 174 87C174 63.0696 154.601 43.6699 130.67 43.6699Z" fill="#040404"/>
</g>
<defs>
<clipPath id="clip0_215_121">
<rect width="174" height="174" fill="white"/>
</clipPath>
</defs>
</svg>
